<?xml version="1.0" encoding="utf-8"?>
<svg width="850" height="486" viewBox="0 0 850 486" xmlns="http://www.w3.org/2000/svg">
<rect id="frame" x="0" y="0" width="850" height="486" fill="#fff" stroke="none" stroke-width="0"/>

<!-- Association have -->
<g class="page_0_fhCjptGA diagram_page" visibility="visible">
	<line x1="71" y1="125" x2="195" y2="125" stroke="#d6604d" stroke-width="1"/>
	<text x="138" y="142" fill="#4d4d4d" font-family="Verdana" font-size="12">0,N</text>
	<line x1="297" y1="125" x2="195" y2="125" stroke="#d6604d" stroke-width="1"/>
	<text x="227" y="142" fill="#4d4d4d" font-family="Verdana" font-size="12">1,1</text>
	<g>
		<path d="M207 99 a14 14 90 0 1 14 14 V125 h-52 V113 a14 14 90 0 1 14 -14" fill="#f4a582" stroke="#f4a582" stroke-width="0"/>
		<path d="M221 125 v12 a14 14 90 0 1 -14 14 H183 a14 14 90 0 1 -14 -14 V125 H52" fill="#fddbc7" stroke="#fddbc7" stroke-width="0"/>
		<rect x="169" y="99" width="52" height="52" fill="none" rx="14" stroke="#d6604d" stroke-width="1.5"/>
		<line x1="169" y1="125" x2="221" y2="125" stroke="#d6604d" stroke-width="1"/>
		<text x="177" y="117.6" fill="#000" font-family="Trebuchet MS" font-size="14">have</text>
	</g>
</g>

<!-- Association historiser -->
<g class="page_0_fhCjptGA diagram_page" visibility="visible">
	<line x1="297" y1="125" x2="422" y2="125" stroke="#d6604d" stroke-width="1"/>
	<text x="342" y="142" fill="#4d4d4d" font-family="Verdana" font-size="12">0,N</text>
	<line x1="572" y1="125" x2="422" y2="125" stroke="#d6604d" stroke-width="1"/>
	<text x="476" y="117" fill="#4d4d4d" font-family="Verdana" font-size="12">0,N</text>
	<g>
		<path d="M457 99 a14 14 90 0 1 14 14 V125 h-98 V113 a14 14 90 0 1 14 -14" fill="#f4a582" stroke="#f4a582" stroke-width="0"/>
		<path d="M471 125 v12 a14 14 90 0 1 -14 14 H387 a14 14 90 0 1 -14 -14 V125 H98" fill="#fddbc7" stroke="#fddbc7" stroke-width="0"/>
		<rect x="373" y="99" width="98" height="52" fill="none" rx="14" stroke="#d6604d" stroke-width="1.5"/>
		<line x1="373" y1="125" x2="471" y2="125" stroke="#d6604d" stroke-width="1"/>
		<text x="386" y="117.6" fill="#000" font-family="Trebuchet MS" font-size="14">historiser</text>
		<text x="380" y="143.6" fill="#000" font-family="Trebuchet MS" font-size="14">timestamp</text>
	</g>
</g>

<!-- Association avoir -->
<g class="page_0_fhCjptGA diagram_page" visibility="visible">
	<line x1="572" y1="125" x2="700" y2="125" stroke="#d6604d" stroke-width="1"/>
	<text x="642" y="142" fill="#4d4d4d" font-family="Verdana" font-size="12">1,1</text>
	<line x1="802" y1="125" x2="700" y2="125" stroke="#d6604d" stroke-width="1"/>
	<text x="732" y="142" fill="#4d4d4d" font-family="Verdana" font-size="12">0,N</text>
	<g>
		<path d="M713 99 a14 14 90 0 1 14 14 V125 h-54 V113 a14 14 90 0 1 14 -14" fill="#f4a582" stroke="#f4a582" stroke-width="0"/>
		<path d="M727 125 v12 a14 14 90 0 1 -14 14 H687 a14 14 90 0 1 -14 -14 V125 H54" fill="#fddbc7" stroke="#fddbc7" stroke-width="0"/>
		<rect x="673" y="99" width="54" height="52" fill="none" rx="14" stroke="#d6604d" stroke-width="1.5"/>
		<line x1="673" y1="125" x2="727" y2="125" stroke="#d6604d" stroke-width="1"/>
		<text x="681" y="117.6" fill="#000" font-family="Trebuchet MS" font-size="14">avoir</text>
	</g>
</g>

<!-- Association jouer -->
<g class="page_0_fhCjptGA diagram_page" visibility="visible">
	<line x1="572" y1="125" x2="422" y2="266" stroke="#d6604d" stroke-width="1"/>
	<text x="476" y="184.86" fill="#4d4d4d" font-family="Verdana" font-size="12">1,N</text>
	<line x1="422" y1="397" x2="422" y2="266" stroke="#d6604d" stroke-width="1"/>
	<text x="427" y="309" fill="#4d4d4d" font-family="Verdana" font-size="12">0,N</text>
	<g>
		<path d="M436 240 a14 14 90 0 1 14 14 V266 h-56 V254 a14 14 90 0 1 14 -14" fill="#f4a582" stroke="#f4a582" stroke-width="0"/>
		<path d="M450 266 v12 a14 14 90 0 1 -14 14 H408 a14 14 90 0 1 -14 -14 V266 H56" fill="#fddbc7" stroke="#fddbc7" stroke-width="0"/>
		<rect x="394" y="240" width="56" height="52" fill="none" rx="14" stroke="#d6604d" stroke-width="1.5"/>
		<line x1="394" y1="266" x2="450" y2="266" stroke="#d6604d" stroke-width="1"/>
		<text x="401" y="258.6" fill="#000" font-family="Trebuchet MS" font-size="14">jouer</text>
	</g>
</g>

<!-- Entity user -->
<g class="page_0_fhCjptGA diagram_page" visibility="visible">
	<g>
		<rect x="9" y="9" width="124" height="26" fill="#bababa" stroke="#bababa" stroke-width="0" opacity="1"/>
		<rect x="9" y="35" width="124" height="206" fill="#e0e0e0" stroke="#e0e0e0" stroke-width="0" opacity="1"/>
		<rect x="9" y="9" width="124" height="232" fill="none" stroke="#878787" stroke-width="1.5" opacity="1"/>
		<line x1="9" y1="35" x2="133" y2="35" stroke="#878787" stroke-width="1"/>
	</g>
	<text x="54" y="27.6" fill="#000" font-family="Trebuchet MS" font-size="14">user</text>
	<text x="14" y="53.6" fill="#000" font-family="Trebuchet MS" font-size="14">id</text>
	<line x1="14" y1="56" x2="30" y2="56" stroke="#000" stroke-width="1"/>
	<text x="14" y="71.6" fill="#000" font-family="Trebuchet MS" font-size="14">email</text>
	<text x="14" y="89.6" fill="#000" font-family="Trebuchet MS" font-size="14">password</text>
	<text x="14" y="107.6" fill="#000" font-family="Trebuchet MS" font-size="14">birthday</text>
	<text x="14" y="125.6" fill="#000" font-family="Trebuchet MS" font-size="14">gender</text>
	<text x="14" y="143.6" fill="#000" font-family="Trebuchet MS" font-size="14">firstname</text>
	<text x="14" y="161.6" fill="#000" font-family="Trebuchet MS" font-size="14">lastname</text>
	<text x="14" y="179.6" fill="#000" font-family="Trebuchet MS" font-size="14">country</text>
	<text x="14" y="197.6" fill="#000" font-family="Trebuchet MS" font-size="14">date_created</text>
	<text x="14" y="215.6" fill="#000" font-family="Trebuchet MS" font-size="14">date_modified</text>
	<text x="14" y="233.6" fill="#000" font-family="Trebuchet MS" font-size="14">date_deleted</text>
</g>

<!-- Entity profile -->
<g class="page_0_fhCjptGA diagram_page" visibility="visible">
	<g>
		<rect x="257" y="72" width="80" height="26" fill="#bababa" stroke="#bababa" stroke-width="0" opacity="1"/>
		<rect x="257" y="98" width="80" height="80" fill="#e0e0e0" stroke="#e0e0e0" stroke-width="0" opacity="1"/>
		<rect x="257" y="72" width="80" height="106" fill="none" stroke="#878787" stroke-width="1.5" opacity="1"/>
		<line x1="257" y1="98" x2="337" y2="98" stroke="#878787" stroke-width="1"/>
	</g>
	<text x="271" y="90.6" fill="#000" font-family="Trebuchet MS" font-size="14">profile</text>
	<text x="262" y="116.6" fill="#000" font-family="Trebuchet MS" font-size="14">id</text>
	<line x1="262" y1="119" x2="278" y2="119" stroke="#000" stroke-width="1"/>
	<text x="262" y="134.6" fill="#000" font-family="Trebuchet MS" font-size="14">name</text>
	<text x="262" y="152.6" fill="#000" font-family="Trebuchet MS" font-size="14">language</text>
	<text x="262" y="170.6" fill="#000" font-family="Trebuchet MS" font-size="14">photo</text>
</g>

<!-- Entity video -->
<g class="page_0_fhCjptGA diagram_page" visibility="visible">
	<g>
		<rect x="507" y="18" width="130" height="26" fill="#bababa" stroke="#bababa" stroke-width="0" opacity="1"/>
		<rect x="507" y="44" width="130" height="188" fill="#e0e0e0" stroke="#e0e0e0" stroke-width="0" opacity="1"/>
		<rect x="507" y="18" width="130" height="214" fill="none" stroke="#878787" stroke-width="1.5" opacity="1"/>
		<line x1="507" y1="44" x2="637" y2="44" stroke="#878787" stroke-width="1"/>
	</g>
	<text x="551" y="36.6" fill="#000" font-family="Trebuchet MS" font-size="14">video</text>
	<text x="512" y="62.6" fill="#000" font-family="Trebuchet MS" font-size="14">id</text>
	<line x1="512" y1="65" x2="528" y2="65" stroke="#000" stroke-width="1"/>
	<text x="512" y="80.6" fill="#000" font-family="Trebuchet MS" font-size="14">name</text>
	<text x="512" y="98.6" fill="#000" font-family="Trebuchet MS" font-size="14">duration</text>
	<text x="512" y="116.6" fill="#000" font-family="Trebuchet MS" font-size="14">origin_country</text>
	<text x="512" y="134.6" fill="#000" font-family="Trebuchet MS" font-size="14">synopsis</text>
	<text x="512" y="152.6" fill="#000" font-family="Trebuchet MS" font-size="14">url_video</text>
	<text x="512" y="170.6" fill="#000" font-family="Trebuchet MS" font-size="14">cover</text>
	<text x="512" y="188.6" fill="#000" font-family="Trebuchet MS" font-size="14">product_year</text>
	<text x="512" y="206.6" fill="#000" font-family="Trebuchet MS" font-size="14">date_published</text>
	<text x="512" y="224.6" fill="#000" font-family="Trebuchet MS" font-size="14">date_deleted</text>
</g>

<!-- Entity category -->
<g class="page_0_fhCjptGA diagram_page" visibility="visible">
	<g>
		<rect x="763" y="90" width="78" height="26" fill="#bababa" stroke="#bababa" stroke-width="0" opacity="1"/>
		<rect x="763" y="116" width="78" height="44" fill="#e0e0e0" stroke="#e0e0e0" stroke-width="0" opacity="1"/>
		<rect x="763" y="90" width="78" height="70" fill="none" stroke="#878787" stroke-width="1.5" opacity="1"/>
		<line x1="763" y1="116" x2="841" y2="116" stroke="#878787" stroke-width="1"/>
	</g>
	<text x="768" y="108.6" fill="#000" font-family="Trebuchet MS" font-size="14">category</text>
	<text x="768" y="134.6" fill="#000" font-family="Trebuchet MS" font-size="14">id</text>
	<line x1="768" y1="137" x2="784" y2="137" stroke="#000" stroke-width="1"/>
	<text x="768" y="152.6" fill="#000" font-family="Trebuchet MS" font-size="14">name</text>
</g>

<!-- Entity actor -->
<g class="page_0_fhCjptGA diagram_page" visibility="visible">
	<g>
		<rect x="379" y="317" width="86" height="26" fill="#bababa" stroke="#bababa" stroke-width="0" opacity="1"/>
		<rect x="379" y="343" width="86" height="134" fill="#e0e0e0" stroke="#e0e0e0" stroke-width="0" opacity="1"/>
		<rect x="379" y="317" width="86" height="160" fill="none" stroke="#878787" stroke-width="1.5" opacity="1"/>
		<line x1="379" y1="343" x2="465" y2="343" stroke="#878787" stroke-width="1"/>
	</g>
	<text x="402" y="335.6" fill="#000" font-family="Trebuchet MS" font-size="14">actor</text>
	<text x="384" y="361.6" fill="#000" font-family="Trebuchet MS" font-size="14">id</text>
	<line x1="384" y1="364" x2="400" y2="364" stroke="#000" stroke-width="1"/>
	<text x="384" y="379.6" fill="#000" font-family="Trebuchet MS" font-size="14">firstname</text>
	<text x="384" y="397.6" fill="#000" font-family="Trebuchet MS" font-size="14">lastname</text>
	<text x="384" y="415.6" fill="#000" font-family="Trebuchet MS" font-size="14">birthday</text>
	<text x="384" y="433.6" fill="#000" font-family="Trebuchet MS" font-size="14">gender</text>
	<text x="384" y="451.6" fill="#000" font-family="Trebuchet MS" font-size="14">photo</text>
	<text x="384" y="469.6" fill="#000" font-family="Trebuchet MS" font-size="14">producer</text>
</g>
</svg>